<svg version="1.1" xmlns="http://www.w3.org/2000/svg" xmlns:xlink="http://www.w3.org/1999/xlink" width="40" height="40" viewBox="0,0,256,256"><g fill="#2d04fe" fill-rule="nonzero" stroke="none" stroke-width="1" stroke-linecap="butt" stroke-linejoin="miter" stroke-miterlimit="10" stroke-dasharray="" stroke-dashoffset="0" font-family="none" font-weight="none" font-size="none" text-anchor="none" style="mix-blend-mode: normal"><g transform="translate(0.03678,-0.03506) scale(6.4,6.4)"><path d="M18.3195,24.6749c1.6754,-1.1153 2.9473,-2.7402 3.6277,-4.6343c0.6804,-1.8941 0.7332,-3.9569 0.1506,-5.8834c-0.5826,-1.9264 -1.7697,-3.6142 -3.3857,-4.81382c-1.6161,-1.1996 -3.5753,-1.84729 -5.5879,-1.84729c-2.0126,0 -3.97179,0.64769 -5.58783,1.84729c-1.61605,1.19962 -2.80315,2.88742 -3.38576,4.81382c-0.5826,1.9265 -0.52979,3.9893 0.15064,5.8834c0.68043,1.8941 1.95234,3.519 3.62766,4.6343c-3.03048,1.1169 -5.61858,3.1838 -7.37812,5.8922c-0.09248,0.1374 -0.15671,0.2919 -0.18897,0.4544c-0.03226,0.1625 -0.0319,0.3297 0.00106,0.4921c0.03296,0.1623 0.09786,0.3165 0.19093,0.4535c0.09307,0.1371 0.21245,0.2543 0.3512,0.3448c0.13875,0.0905 0.29411,0.1525 0.45704,0.1824c0.16293,0.0299 0.33018,0.0272 0.49204,-0.0081c0.16186,-0.0353 0.31509,-0.1024 0.45079,-0.1974c0.13569,-0.095 0.25115,-0.2161 0.33966,-0.3561c1.13498,-1.7456 2.68805,-3.1801 4.51818,-4.1731c1.83012,-0.9931 3.87928,-1.5132 5.96148,-1.5132c2.0822,0 4.1314,0.5201 5.9615,1.5132c1.8302,0.993 3.3832,2.4275 4.5182,4.1731c0.1833,0.2725 0.4666,0.4619 0.7884,0.5272c0.3219,0.0654 0.6565,0.0014 0.9316,-0.178c0.2751,-0.1794 0.4685,-0.4599 0.5384,-0.7808c0.07,-0.3209 0.0108,-0.6564 -0.1646,-0.934c-1.7596,-2.7084 -4.3477,-4.7753 -7.3782,-5.8922zM6.24922,16.8749c0,-1.3597 0.40321,-2.689 1.15865,-3.8195c0.75543,-1.1306 1.82916,-2.0118 3.08543,-2.5322c1.2562,-0.5203 2.6386,-0.65647 3.9722,-0.3912c1.3336,0.2653 2.5586,0.9201 3.5201,1.8815c0.9615,0.9615 1.6162,2.1865 1.8815,3.5202c0.2653,1.3336 0.1291,2.7159 -0.3912,3.9721c-0.5204,1.2563 -1.4015,2.33 -2.5321,3.0855c-1.1306,0.7554 -2.4598,1.1586 -3.8196,1.1586c-1.8227,-0.0021 -3.57019,-0.7271 -4.85905,-2.0159c-1.28887,-1.2889 -2.01386,-3.0364 -2.01593,-4.8591zM39.0836,32.2968c-0.2777,0.181 -0.6159,0.2444 -0.9402,0.1761c-0.3244,-0.0683 -0.6084,-0.2626 -0.7895,-0.5402c-1.1336,-1.7467 -2.6865,-3.1818 -4.517,-4.1744c-1.8305,-0.9926 -3.8804,-1.5112 -5.9627,-1.5084c-0.3315,0 -0.6494,-0.1317 -0.8839,-0.3661c-0.2344,-0.2344 -0.3661,-0.5524 -0.3661,-0.8839c0,-0.3315 0.1317,-0.6495 0.3661,-0.8839c0.2345,-0.2344 0.5524,-0.3661 0.8839,-0.3661c1.0125,-0.001 2.0122,-0.2255 2.9278,-0.6576c0.9156,-0.4322 1.7245,-1.0612 2.3688,-1.8421c0.6443,-0.781 1.1082,-1.6946 1.3585,-2.6757c0.2503,-0.981 0.2809,-2.0052 0.0895,-2.9994c-0.1915,-0.9942 -0.6001,-1.9338 -1.1967,-2.7518c-0.5967,-0.8179 -1.3667,-1.494 -2.2549,-1.9799c-0.8882,-0.4859 -1.8728,-0.7696 -2.8834,-0.8309c-1.0106,-0.06127 -2.0223,0.1014 -2.9627,0.4765c-0.1533,0.0662 -0.3184,0.1011 -0.4854,0.1025c-0.1671,0.0014 -0.3327,-0.0306 -0.4871,-0.0943c-0.1545,-0.0637 -0.2946,-0.1577 -0.4121,-0.2764c-0.1175,-0.1188 -0.21,-0.25988 -0.272,-0.41498c-0.062,-0.1551 -0.0924,-0.32106 -0.0892,-0.48808c0.0032,-0.16702 0.0398,-0.3317 0.1078,-0.48432c0.0679,-0.15262 0.1657,-0.29009 0.2876,-0.40426c0.1219,-0.11418 0.2655,-0.20276 0.4223,-0.26051c2.1523,-0.85836 4.5462,-0.88925 6.7199,-0.08671c2.1737,0.80254 3.9732,2.38166 5.0513,4.43266c1.0782,2.051 1.3585,4.4287 0.7871,6.6742c-0.5715,2.2456 -1.9543,4.2 -3.8818,5.4861c3.0305,1.1169 5.6186,3.1838 7.3782,5.8922c0.181,0.2776 0.2444,0.6159 0.1761,0.9402c-0.0683,0.3244 -0.2626,0.6084 -0.5402,0.7895z"></path></g></g></svg>