<svg version="1.1" xmlns="http://www.w3.org/2000/svg" xmlns:xlink="http://www.w3.org/1999/xlink" width="40" height="40" viewBox="0,0,256,256"><g fill="#2d04fe" fill-rule="nonzero" stroke="none" stroke-width="1" stroke-linecap="butt" stroke-linejoin="miter" stroke-miterlimit="10" stroke-dasharray="" stroke-dashoffset="0" font-family="none" font-weight="none" font-size="none" text-anchor="none" style="mix-blend-mode: normal"><g transform="translate(-0.00044,4.00124) scale(6.4,6.4)"><path d="M37.372,15.1967c-0.1563,-0.4805 -0.4513,-0.9039 -0.8478,-1.217c-0.3965,-0.3131 -0.8768,-0.5018 -1.3803,-0.5424l-9.2188,-0.7438l-3.5594,-8.60778c-0.1925,-0.46904 -0.5201,-0.87024 -0.9412,-1.1526c-0.4211,-0.28236 -0.9166,-0.43312 -1.4236,-0.43312c-0.507,0 -1.0026,0.15076 -1.4237,0.43312c-0.421,0.28236 -0.7487,0.68356 -0.9412,1.1526l-3.5562,8.60628l-9.22344,0.7453c-0.50442,0.0426 -0.98502,0.2332 -1.38161,0.5478c-0.39658,0.3146 -0.69151,0.7392 -0.84783,1.2207c-0.15632,0.4815 -0.16708,0.9984 -0.03093,1.4859c0.13615,0.4876 0.41315,0.9241 0.7963,1.255l7.03121,6.0671l-2.14214,9.0719c-0.11981,0.4929 -0.09048,1.0102 0.08427,1.4864c0.17476,0.4761 0.48704,0.8896 0.89722,1.188c0.41019,0.2983 0.89975,0.468 1.40655,0.4876c0.5069,0.0196 1.0081,-0.1118 1.4401,-0.3776l7.8906,-4.8563l7.8953,4.8563c0.4322,0.2626 0.9324,0.3915 1.4376,0.3705c0.5053,-0.0211 0.993,-0.1912 1.4018,-0.4889c0.4088,-0.2977 0.7203,-0.7096 0.8955,-1.1841c0.1751,-0.4744 0.2059,-0.99 0.0886,-1.4819l-2.15,-9.0734l7.0312,-6.0672c0.3863,-0.3303 0.6658,-0.7678 0.8032,-1.257c0.1374,-0.4893 0.1265,-1.0084 -0.0313,-1.4914zM34.9751,16.0513l-7.6094,6.5625c-0.1735,0.1496 -0.3026,0.344 -0.3731,0.562c-0.0706,0.2179 -0.0799,0.4511 -0.0269,0.674l2.325,9.8125c0.006,0.0135 0.0066,0.0288 0.0017,0.0428c-0.0049,0.0139 -0.015,0.0255 -0.0282,0.0322c-0.0282,0.0219 -0.036,0.0172 -0.0594,0l-8.55,-5.2578c-0.1969,-0.1211 -0.4235,-0.1852 -0.6547,-0.1852c-0.2311,0 -0.4578,0.0641 -0.6547,0.1852l-8.55,5.2609c-0.0234,0.0141 -0.0297,0.0188 -0.0594,0c-0.0131,-0.0067 -0.0233,-0.0182 -0.0282,-0.0322c-0.0049,-0.0139 -0.0043,-0.0293 0.0017,-0.0428l2.325,-9.8125c0.053,-0.2229 0.0437,-0.456 -0.0269,-0.674c-0.0705,-0.218 -0.1996,-0.4124 -0.3731,-0.5619l-7.60939,-6.5625c-0.01875,-0.0157 -0.03594,-0.0297 -0.02032,-0.0782c0.01563,-0.0484 0.02813,-0.0421 0.05157,-0.0453l9.98754,-0.8062c0.229,-0.0197 0.4483,-0.1021 0.6335,-0.2383c0.1853,-0.1362 0.3294,-0.3208 0.4165,-0.5336l3.8468,-9.31405c0.0125,-0.02657 0.0172,-0.03907 0.0547,-0.03907c0.0375,0 0.0422,0.0125 0.0547,0.03907l3.8563,9.31405c0.0879,0.2129 0.2329,0.3973 0.419,0.533c0.1861,0.1356 0.4061,0.2172 0.6356,0.2358l9.9875,0.8062c0.0235,0 0.0375,0 0.0516,0.0453c0.0141,0.0453 0,0.0625 -0.025,0.0781z"></path></g></g></svg>