<?xml version="1.0" encoding="UTF-8"?>
<svg xmlns="http://www.w3.org/2000/svg" width="64" height="64" viewBox="0 0 64 64" fill="none">
  <rect width="64" height="64" rx="32" fill="#4A0EFB" fill-opacity="0.05" style="fill:#4A0EFB;fill:color(display-p3 0.2902 0.0549 0.9843);fill-opacity:0.05;"></rect>
  <path d="M37.865 35.5C36.5788 37.7237 34.4412 39 32 39C29.5588 39 27.4212 37.725 26.1337 35.5C26.0681 35.3862 26.0255 35.2607 26.0083 35.1304C25.9912 35.0002 25.9999 34.8679 26.0339 34.741C26.0679 34.6142 26.1266 34.4952 26.2066 34.391C26.2865 34.2868 26.3862 34.1994 26.5 34.1337C26.6138 34.0681 26.7393 34.0255 26.8696 34.0083C26.9998 33.9912 27.1321 33.9999 27.259 34.0339C27.3858 34.0679 27.5048 34.1266 27.609 34.2066C27.7132 34.2865 27.8006 34.3862 27.8663 34.5C28.7987 36.1137 30.2662 37 32 37C33.7338 37 35.2013 36.1125 36.135 34.5C36.1975 34.3805 36.2836 34.2749 36.388 34.1895C36.4923 34.1041 36.6129 34.0407 36.7425 34.0031C36.872 33.9655 37.0078 33.9546 37.1417 33.9708C37.2756 33.9871 37.4048 34.0303 37.5215 34.0978C37.6383 34.1652 37.7402 34.2557 37.8211 34.3636C37.902 34.4715 37.9603 34.5946 37.9924 34.7256C38.0245 34.8566 38.0297 34.9927 38.0078 35.1258C37.9859 35.2589 37.9374 35.3862 37.865 35.5ZM45 32C45.0006 33.2946 44.8085 34.582 44.43 35.82C44.3818 35.9763 44.2959 36.1183 44.18 36.2337L36.2337 44.18C36.119 44.2961 35.9773 44.382 35.8213 44.43C33.2058 45.2343 30.4032 45.1928 27.8126 44.3114C25.2221 43.43 22.9758 41.7537 21.3935 39.5211C19.8113 37.2886 18.9739 34.6137 19.0006 31.8774C19.0273 29.1412 19.9168 26.4832 21.5422 24.2819C23.1677 22.0807 25.4464 20.4485 28.0536 19.6178C30.6608 18.7871 33.4637 18.8003 36.063 19.6555C38.6623 20.5107 40.9254 22.1644 42.5301 24.3808C44.1348 26.5973 44.9991 29.2636 45 32ZM43 32C42.9971 29.6988 42.2717 27.4565 40.9261 25.5897C39.5805 23.7228 37.6827 22.3257 35.5004 21.5953C33.3181 20.865 30.9616 20.8384 28.7634 21.5192C26.5651 22.2001 24.6362 23.554 23.2488 25.39C21.8614 27.2259 21.0855 29.4512 21.0306 31.7518C20.9758 34.0524 21.6448 36.3121 22.9431 38.2121C24.2415 40.1121 26.1037 41.5564 28.267 42.3412C30.4303 43.1261 32.7854 43.2118 35 42.5862L42.5863 35C42.8617 34.0238 43.001 33.0143 43 32ZM27.5 31C27.7967 31 28.0867 30.912 28.3334 30.7472C28.58 30.5824 28.7723 30.3481 28.8858 30.074C28.9994 29.7999 29.0291 29.4983 28.9712 29.2074C28.9133 28.9164 28.7704 28.6491 28.5607 28.4393C28.3509 28.2296 28.0836 28.0867 27.7926 28.0288C27.5017 27.9709 27.2001 28.0006 26.926 28.1142C26.6519 28.2277 26.4176 28.42 26.2528 28.6666C26.088 28.9133 26 29.2033 26 29.5C26 29.8978 26.158 30.2794 26.4393 30.5607C26.7206 30.842 27.1022 31 27.5 31ZM36.5 28C36.2033 28 35.9133 28.088 35.6666 28.2528C35.42 28.4176 35.2277 28.6519 35.1142 28.926C35.0007 29.2001 34.9709 29.5017 35.0288 29.7926C35.0867 30.0836 35.2296 30.3509 35.4393 30.5607C35.6491 30.7704 35.9164 30.9133 36.2074 30.9712C36.4983 31.0291 36.7999 30.9993 37.074 30.8858C37.3481 30.7723 37.5824 30.58 37.7472 30.3334C37.912 30.0867 38 29.7967 38 29.5C38 29.1022 37.842 28.7206 37.5607 28.4393C37.2794 28.158 36.8978 28 36.5 28Z" fill="#4A0EFB" style="fill:#4A0EFB;fill:color(display-p3 0.2902 0.0549 0.9843);fill-opacity:1;"></path>
</svg>
