<?xml version="1.0" encoding="UTF-8"?>
<svg xmlns="http://www.w3.org/2000/svg" width="64" height="64" viewBox="0 0 64 64" fill="none">
  <rect width="64" height="64" rx="32" fill="#4A0EFB" fill-opacity="0.05" style="fill:#4A0EFB;fill:color(display-p3 0.2902 0.0549 0.9843);fill-opacity:0.05;"></rect>
  <path d="M46.9137 31.595C46.87 31.4963 45.8112 29.1475 43.4575 26.7937C40.3212 23.6575 36.36 22 32 22C27.64 22 23.6787 23.6575 20.5425 26.7937C18.1887 29.1475 17.125 31.5 17.0862 31.595C17.0294 31.7229 17 31.8613 17 32.0012C17 32.1412 17.0294 32.2796 17.0862 32.4075C17.13 32.5062 18.1887 34.8538 20.5425 37.2075C23.6787 40.3425 27.64 42 32 42C36.36 42 40.3212 40.3425 43.4575 37.2075C45.8112 34.8538 46.87 32.5062 46.9137 32.4075C46.9706 32.2796 47 32.1412 47 32.0012C47 31.8613 46.9706 31.7229 46.9137 31.595ZM32 40C28.1525 40 24.7912 38.6012 22.0087 35.8438C20.867 34.7084 19.8957 33.4137 19.125 32C19.8955 30.5862 20.8669 29.2915 22.0087 28.1562C24.7912 25.3988 28.1525 24 32 24C35.8475 24 39.2087 25.3988 41.9912 28.1562C43.1352 29.2912 44.1086 30.5859 44.8812 32C43.98 33.6825 40.0537 40 32 40ZM32 26C30.8133 26 29.6533 26.3519 28.6666 27.0112C27.6799 27.6705 26.9108 28.6075 26.4567 29.7039C26.0026 30.8003 25.8838 32.0067 26.1153 33.1705C26.3468 34.3344 26.9182 35.4035 27.7573 36.2426C28.5965 37.0818 29.6656 37.6532 30.8294 37.8847C31.9933 38.1162 33.1997 37.9974 34.2961 37.5433C35.3924 37.0892 36.3295 36.3201 36.9888 35.3334C37.6481 34.3467 38 33.1867 38 32C37.9983 30.4092 37.3657 28.884 36.2408 27.7592C35.1159 26.6343 33.5908 26.0017 32 26ZM32 36C31.2089 36 30.4355 35.7654 29.7777 35.3259C29.1199 34.8864 28.6072 34.2616 28.3045 33.5307C28.0017 32.7998 27.9225 31.9956 28.0768 31.2196C28.2312 30.4437 28.6122 29.731 29.1716 29.1716C29.731 28.6122 30.4437 28.2312 31.2196 28.0769C31.9956 27.9225 32.7998 28.0017 33.5307 28.3045C34.2616 28.6072 34.8863 29.1199 35.3259 29.7777C35.7654 30.4355 36 31.2089 36 32C36 33.0609 35.5786 34.0783 34.8284 34.8284C34.0783 35.5786 33.0609 36 32 36Z" fill="#4A0EFB" style="fill:#4A0EFB;fill:color(display-p3 0.2902 0.0549 0.9843);fill-opacity:1;"></path>
</svg>
