<?xml version="1.0" encoding="UTF-8"?>
<svg xmlns="http://www.w3.org/2000/svg" width="25" height="25" viewBox="0 0 25 25" fill="none">
  <path d="M22.9234 9.61824C22.8297 9.32998 22.6527 9.07592 22.4148 8.88807C22.1769 8.70022 21.8887 8.58698 21.5866 8.56261L16.0553 8.11636L13.9197 2.95168C13.8042 2.67026 13.6076 2.42953 13.355 2.26012C13.1023 2.0907 12.805 2.00024 12.5008 2.00024C12.1966 2.00024 11.8992 2.0907 11.6466 2.26012C11.3939 2.42953 11.1974 2.67026 11.0819 2.95168L8.94812 8.11543L3.41406 8.56261C3.11141 8.58821 2.82305 8.70255 2.5851 8.89131C2.34714 9.08006 2.17019 9.33485 2.0764 9.62373C1.9826 9.91261 1.97615 10.2227 2.05784 10.5153C2.13953 10.8078 2.30573 11.0697 2.53562 11.2682L6.75437 14.9086L5.46906 20.3517C5.39717 20.6474 5.41477 20.9578 5.51962 21.2435C5.62448 21.5292 5.81185 21.7773 6.05796 21.9563C6.30407 22.1353 6.59781 22.2371 6.90191 22.2489C7.20601 22.2606 7.50674 22.1818 7.76593 22.0223L12.5003 19.1086L17.2375 22.0223C17.4968 22.1799 17.7969 22.2572 18.1001 22.2446C18.4032 22.232 18.6958 22.1299 18.9411 21.9513C19.1864 21.7727 19.3733 21.5255 19.4784 21.2408C19.5835 20.9562 19.602 20.6468 19.5316 20.3517L18.2416 14.9076L22.4603 11.2673C22.6921 11.0691 22.8598 10.8066 22.9422 10.5131C23.0247 10.2195 23.0181 9.90808 22.9234 9.61824ZM21.4853 10.1311L16.9197 14.0686C16.8156 14.1583 16.7381 14.2749 16.6958 14.4057C16.6535 14.5365 16.6479 14.6764 16.6797 14.8101L18.0747 20.6976C18.0783 20.7057 18.0787 20.7149 18.0757 20.7233C18.0727 20.7317 18.0667 20.7386 18.0587 20.7426C18.0419 20.7557 18.0372 20.7529 18.0231 20.7426L12.8931 17.5879C12.775 17.5153 12.639 17.4768 12.5003 17.4768C12.3616 17.4768 12.2256 17.5153 12.1075 17.5879L6.97749 20.7445C6.96343 20.7529 6.95968 20.7557 6.94187 20.7445C6.93396 20.7405 6.92789 20.7335 6.92493 20.7252C6.92196 20.7168 6.92232 20.7076 6.92593 20.6995L8.32093 14.812C8.35273 14.6783 8.34715 14.5384 8.30483 14.4076C8.2625 14.2768 8.18505 14.1602 8.08093 14.0704L3.51531 10.1329C3.50406 10.1236 3.49374 10.1151 3.50312 10.0861C3.51249 10.057 3.51999 10.0607 3.53406 10.0589L9.52656 9.57511C9.664 9.56333 9.79554 9.51386 9.90669 9.43215C10.0178 9.35044 10.1043 9.23966 10.1566 9.11199L12.4647 3.52355C12.4722 3.50761 12.475 3.50011 12.4975 3.50011C12.52 3.50011 12.5228 3.50761 12.5303 3.52355L14.8441 9.11199C14.8968 9.23971 14.9838 9.35037 15.0955 9.43176C15.2072 9.51315 15.3391 9.56211 15.4769 9.57324L21.4694 10.057C21.4834 10.057 21.4919 10.057 21.5003 10.0842C21.5087 10.1114 21.5003 10.1217 21.4853 10.1311Z" fill="#8D8D8D" style="fill:#8D8D8D;fill:color(display-p3 0.5518 0.5518 0.5518);fill-opacity:1;"></path>
</svg>
