<?xml version="1.0" encoding="UTF-8"?>
<svg width="48px" height="48px" viewBox="0 0 48 48" version="1.1" xmlns="http://www.w3.org/2000/svg" xmlns:xlink="http://www.w3.org/1999/xlink">
    <title>wim1</title>
    <defs>
        <linearGradient x1="100%" y1="50%" x2="0%" y2="50%" id="linearGradient-1">
            <stop stop-color="#1CC6DC" stop-opacity="0" offset="0.0778518357%"></stop>
            <stop stop-color="#09D9D7" offset="100%"></stop>
        </linearGradient>
    </defs>
    <g id="Desktop" stroke="none" stroke-width="1" fill="none" fill-rule="evenodd">
        <g id="About" transform="translate(-220.000000, -1400.000000)">
            <g id="Section---Our-way-of-working" transform="translate(80.000000, 1100.000000)">
                <g id="wim1" transform="translate(140.000000, 300.000000)">
                    <rect id="Bound" x="0" y="0" width="48" height="48"></rect>
                    <path d="M24,0 C37.254834,0 48,10.745166 48,24 C48,37.254834 37.254834,48 24,48 C10.745166,48 0,37.254834 0,24 C0,10.745166 10.745166,0 24,0 Z M24,12 C17.372583,12 12,17.372583 12,24 C12,30.627417 17.372583,36 24,36 C30.627417,36 36,30.627417 36,24 C36,17.372583 30.627417,12 24,12 Z" id="Oval" fill="url(#linearGradient-1)"></path>
                    <circle id="Oval" fill="#855CFF" style="mix-blend-mode: darken;" cx="42" cy="24" r="6"></circle>
                </g>
            </g>
        </g>
    </g>
</svg>