<?xml version="1.0" encoding="UTF-8"?>
<svg xmlns="http://www.w3.org/2000/svg" width="32" height="32" viewBox="0 0 32 32" fill="none">
  <path fill-rule="evenodd" clip-rule="evenodd" d="M26.8091 23.2224C28.2376 21.0846 29 18.5712 29 16C28.9964 12.5533 27.6256 9.24882 25.1884 6.81163C22.7512 4.37445 19.4467 3.00364 16 3C13.4288 3 10.9154 3.76244 8.77759 5.1909C6.63975 6.61935 4.97351 8.64968 3.98957 11.0251C3.00563 13.4006 2.74819 16.0144 3.2498 18.5362C3.75141 21.0579 4.98953 23.3743 6.80762 25.1924C8.6257 27.0105 10.9421 28.2486 13.4638 28.7502C15.9856 29.2518 18.5995 28.9944 20.9749 28.0104C23.3503 27.0265 25.3807 25.3603 26.8091 23.2224ZM21.7809 13.6247C22.1259 13.1935 22.056 12.5642 21.6247 12.2192C21.1934 11.8742 20.5641 11.9441 20.2191 12.3753L14.9171 19.0029L12.2071 16.2929C11.8166 15.9024 11.1834 15.9024 10.7929 16.2929C10.4024 16.6835 10.4024 17.3166 10.7929 17.7071L13.5029 20.4171C14.3458 21.26 15.7342 21.1831 16.4788 20.2523L21.7809 13.6247Z" fill="#4A0EFB"></path>
</svg>
