<?xml version="1.0" encoding="UTF-8"?>
<svg xmlns="http://www.w3.org/2000/svg" width="64" height="64" viewBox="0 0 64 64" fill="none">
  <rect width="64" height="64" rx="32" fill="#4A0EFB" fill-opacity="0.05" style="fill:#4A0EFB;fill:color(display-p3 0.2902 0.0549 0.9843);fill-opacity:0.05;"></rect>
  <path d="M45 42C45 42.2652 44.8946 42.5196 44.7071 42.7071C44.5196 42.8946 44.2652 43 44 43H20C19.7348 43 19.4804 42.8946 19.2929 42.7071C19.1054 42.5196 19 42.2652 19 42V22C19 21.7348 19.1054 21.4804 19.2929 21.2929C19.4804 21.1054 19.7348 21 20 21C20.2652 21 20.5196 21.1054 20.7071 21.2929C20.8946 21.4804 21 21.7348 21 22V35.5863L27.2925 29.2925C27.3854 29.1995 27.4957 29.1258 27.6171 29.0754C27.7385 29.0251 27.8686 28.9992 28 28.9992C28.1314 28.9992 28.2615 29.0251 28.3829 29.0754C28.5043 29.1258 28.6146 29.1995 28.7075 29.2925L32 32.5863L38.5863 26H36C35.7348 26 35.4804 25.8946 35.2929 25.7071C35.1054 25.5196 35 25.2652 35 25C35 24.7348 35.1054 24.4804 35.2929 24.2929C35.4804 24.1054 35.7348 24 36 24H41C41.2652 24 41.5196 24.1054 41.7071 24.2929C41.8946 24.4804 42 24.7348 42 25V30C42 30.2652 41.8946 30.5196 41.7071 30.7071C41.5196 30.8946 41.2652 31 41 31C40.7348 31 40.4804 30.8946 40.2929 30.7071C40.1054 30.5196 40 30.2652 40 30V27.4137L32.7075 34.7075C32.6146 34.8005 32.5043 34.8742 32.3829 34.9246C32.2615 34.9749 32.1314 35.0008 32 35.0008C31.8686 35.0008 31.7385 34.9749 31.6171 34.9246C31.4957 34.8742 31.3854 34.8005 31.2925 34.7075L28 31.4137L21 38.4137V41H44C44.2652 41 44.5196 41.1054 44.7071 41.2929C44.8946 41.4804 45 41.7348 45 42Z" fill="#4A0EFB" style="fill:#4A0EFB;fill:color(display-p3 0.2902 0.0549 0.9843);fill-opacity:1;"></path>
</svg>
