<?xml version="1.0" encoding="UTF-8"?>
<svg xmlns="http://www.w3.org/2000/svg" width="64" height="64" viewBox="0 0 64 64" fill="none">
  <rect width="64" height="64" rx="32" fill="#4A0EFB" fill-opacity="0.05" style="fill:#4A0EFB;fill:color(display-p3 0.2902 0.0549 0.9843);fill-opacity:0.05;"></rect>
  <path d="M34.0003 35.71C35.5679 34.7336 36.7749 33.2733 37.4386 31.5498C38.1023 29.8264 38.1867 27.9337 37.6789 26.1581C37.1712 24.3824 36.0989 22.8205 34.6244 21.7085C33.1499 20.5965 31.3533 19.995 29.5065 19.995C27.6597 19.995 25.8631 20.5965 24.3886 21.7085C22.9141 22.8205 21.8418 24.3824 21.3341 26.1581C20.8263 27.9337 20.9107 29.8264 21.5744 31.5498C22.2382 33.2733 23.4451 34.7336 25.0128 35.71C22.4315 36.555 20.109 38.1338 18.2415 40.3563C18.0708 40.5593 17.9877 40.8219 18.0106 41.0862C18.0334 41.3505 18.1603 41.5949 18.3634 41.7656C18.5664 41.9364 18.829 42.0194 19.0933 41.9966C19.3576 41.9737 19.602 41.8468 19.7728 41.6438C22.2815 38.6488 25.739 37 29.5003 37C33.2615 37 36.719 38.6488 39.234 41.6438C39.4047 41.8468 39.6491 41.9737 39.9135 41.9966C40.1778 42.0194 40.4403 41.9364 40.6434 41.7656C40.8464 41.5949 40.9734 41.3505 40.9962 41.0862C41.0191 40.8219 40.936 40.5593 40.7653 40.3563C38.8978 38.1338 36.5753 36.555 34.0003 35.71ZM23.0003 28.5C23.0003 27.2144 23.3815 25.9577 24.0957 24.8888C24.8099 23.8199 25.8251 22.9868 27.0128 22.4948C28.2005 22.0028 29.5075 21.8741 30.7683 22.1249C32.0292 22.3757 33.1874 22.9948 34.0965 23.9038C35.0055 24.8128 35.6246 25.971 35.8754 27.2319C36.1262 28.4928 35.9974 29.7997 35.5055 30.9874C35.0135 32.1752 34.1804 33.1903 33.1115 33.9046C32.0425 34.6188 30.7858 35 29.5003 35C27.777 34.998 26.1248 34.3126 24.9063 33.094C23.6877 31.8754 23.0022 30.2233 23.0003 28.5ZM47.7078 32.7075L43.7078 36.7075C43.6149 36.8005 43.5046 36.8742 43.3832 36.9246C43.2618 36.9749 43.1317 37.0008 43.0003 37.0008C42.8688 37.0008 42.7387 36.9749 42.6173 36.9246C42.4959 36.8742 42.3856 36.8005 42.2928 36.7075L40.2928 34.7075C40.1051 34.5199 39.9997 34.2654 39.9997 34C39.9997 33.7346 40.1051 33.4801 40.2928 33.2925C40.4804 33.1049 40.7349 32.9994 41.0003 32.9994C41.2656 32.9994 41.5201 33.1049 41.7078 33.2925L43.0003 34.5863L46.2928 31.2925C46.4804 31.1049 46.7349 30.9994 47.0003 30.9994C47.2656 30.9994 47.5201 31.1049 47.7078 31.2925C47.8954 31.4801 48.0008 31.7346 48.0008 32C48.0008 32.2654 47.8954 32.5199 47.7078 32.7075Z" fill="#4A0EFB" style="fill:#4A0EFB;fill:color(display-p3 0.2902 0.0549 0.9843);fill-opacity:1;"></path>
</svg>
