<?xml version="1.0" encoding="UTF-8"?>
<svg xmlns="http://www.w3.org/2000/svg" width="25" height="25" viewBox="0 0 25 25" fill="none">
  <path d="M23.4503 14.5999C23.3715 14.659 23.2818 14.702 23.1864 14.7265C23.091 14.7509 22.9917 14.7563 22.8942 14.7424C22.7967 14.7285 22.7029 14.6955 22.6182 14.6453C22.5334 14.5951 22.4594 14.5287 22.4003 14.4499C21.9482 13.8423 21.3598 13.3493 20.6824 13.0106C20.0051 12.6719 19.2576 12.497 18.5003 12.4999C18.3528 12.4999 18.2086 12.4564 18.0857 12.3749C17.9628 12.2933 17.8667 12.1774 17.8093 12.0415C17.7704 11.9492 17.7504 11.8501 17.7504 11.7499C17.7504 11.6498 17.7704 11.5506 17.8093 11.4584C17.8667 11.3225 17.9628 11.2065 18.0857 11.125C18.2086 11.0434 18.3528 10.9999 18.5003 10.9999C18.9211 10.9999 19.3335 10.8818 19.6906 10.6592C20.0476 10.4365 20.3351 10.1182 20.5204 9.74034C20.7056 9.36248 20.7812 8.94025 20.7385 8.52161C20.6958 8.10296 20.5365 7.70468 20.2788 7.37201C20.0211 7.03933 19.6753 6.7856 19.2806 6.63963C18.8859 6.49365 18.4582 6.46129 18.046 6.54622C17.6338 6.63115 17.2538 6.82996 16.9489 7.12007C16.6441 7.41018 16.4267 7.77997 16.3215 8.18742C16.2969 8.28284 16.2537 8.37247 16.1945 8.45119C16.1352 8.52992 16.061 8.59621 15.9761 8.64626C15.8913 8.69632 15.7974 8.72917 15.6998 8.74293C15.6022 8.7567 15.5029 8.75111 15.4075 8.72649C15.3121 8.70186 15.2224 8.65869 15.1437 8.59943C15.065 8.54016 14.9987 8.46598 14.9486 8.3811C14.8986 8.29622 14.8657 8.20231 14.852 8.10474C14.8382 8.00717 14.8438 7.90784 14.8684 7.81242C15.0144 7.2474 15.2903 6.72426 15.6741 6.28463C16.0579 5.84499 16.539 5.50099 17.0791 5.28C17.6192 5.05901 18.2034 4.96713 18.7853 5.01167C19.3672 5.05621 19.9307 5.23594 20.4309 5.53656C20.931 5.83718 21.3542 6.25039 21.6666 6.74332C21.979 7.23624 22.172 7.79527 22.2303 8.37593C22.2887 8.95659 22.2107 9.54285 22.0026 10.0881C21.7944 10.6333 21.4619 11.1224 21.0315 11.5165C22.0514 11.958 22.9379 12.6587 23.6031 13.549C23.6622 13.628 23.7051 13.7179 23.7294 13.8135C23.7537 13.9091 23.7589 14.0085 23.7447 14.1062C23.7305 14.2038 23.6972 14.2976 23.6467 14.3824C23.5962 14.4671 23.5294 14.541 23.4503 14.5999ZM18.399 20.3749C18.4533 20.4603 18.4897 20.5557 18.5062 20.6556C18.5226 20.7554 18.5186 20.8575 18.4946 20.9557C18.4705 21.054 18.4268 21.1463 18.3661 21.2272C18.3054 21.3082 18.229 21.376 18.1414 21.4266C18.0539 21.4772 17.9569 21.5096 17.8565 21.5218C17.7561 21.534 17.6543 21.5258 17.5571 21.4976C17.46 21.4694 17.3695 21.4219 17.2912 21.3578C17.213 21.2938 17.1484 21.2146 17.1015 21.1249C16.6291 20.3249 15.9562 19.6619 15.1493 19.2014C14.3424 18.7408 13.4294 18.4986 12.5003 18.4986C11.5712 18.4986 10.6582 18.7408 9.85126 19.2014C9.04436 19.6619 8.37149 20.3249 7.89903 21.1249C7.85215 21.2146 7.78762 21.2938 7.70932 21.3578C7.63102 21.4219 7.54058 21.4694 7.44344 21.4976C7.34629 21.5258 7.24445 21.534 7.14403 21.5218C7.04362 21.5096 6.94671 21.4772 6.85914 21.4266C6.77156 21.376 6.69513 21.3082 6.63445 21.2272C6.57376 21.1463 6.53007 21.054 6.50601 20.9557C6.48194 20.8575 6.478 20.7554 6.49441 20.6556C6.51083 20.5557 6.54727 20.4603 6.60153 20.3749C7.32866 19.1256 8.43734 18.1424 9.76466 17.5699C9.01778 16.9981 8.46887 16.2066 8.1951 15.3066C7.92132 14.4067 7.93644 13.4436 8.23833 12.5527C8.54022 11.6618 9.1137 10.8879 9.87816 10.3398C10.6426 9.79169 11.5596 9.49692 12.5003 9.49692C13.4409 9.49692 14.3579 9.79169 15.1224 10.3398C15.8869 10.8879 16.4603 11.6618 16.7622 12.5527C17.0641 13.4436 17.0792 14.4067 16.8055 15.3066C16.5317 16.2066 15.9828 16.9981 15.2359 17.5699C16.5632 18.1424 17.6719 19.1256 18.399 20.3749ZM12.5003 16.9999C13.0936 16.9999 13.6736 16.824 14.167 16.4943C14.6603 16.1647 15.0449 15.6962 15.2719 15.148C15.499 14.5998 15.5584 13.9966 15.4426 13.4147C15.3269 12.8327 15.0412 12.2982 14.6216 11.8786C14.202 11.459 13.6675 11.1733 13.0856 11.0576C12.5036 10.9418 11.9004 11.0012 11.3522 11.2283C10.8041 11.4553 10.3355 11.8399 10.0059 12.3332C9.67623 12.8266 9.50028 13.4066 9.50028 13.9999C9.50028 14.7956 9.81635 15.5586 10.379 16.1212C10.9416 16.6839 11.7046 16.9999 12.5003 16.9999ZM7.25028 11.7499C7.25028 11.551 7.17127 11.3602 7.03061 11.2196C6.88996 11.0789 6.6992 10.9999 6.50028 10.9999C6.07947 10.9999 5.66709 10.8818 5.31 10.6592C4.95292 10.4365 4.66543 10.1182 4.48019 9.74034C4.29495 9.36248 4.21939 8.94025 4.26209 8.52161C4.3048 8.10296 4.46405 7.70468 4.72176 7.37201C4.97947 7.03933 5.32531 6.7856 5.72 6.63963C6.11469 6.49365 6.54241 6.46129 6.95457 6.54622C7.36672 6.63115 7.7468 6.82996 8.05164 7.12007C8.35647 7.41018 8.57383 7.77997 8.67903 8.18742C8.72876 8.38012 8.853 8.54517 9.02442 8.64626C9.19584 8.74736 9.4004 8.77621 9.5931 8.72649C9.78579 8.67676 9.95084 8.55252 10.0519 8.3811C10.153 8.20968 10.1819 8.00512 10.1322 7.81242C9.98614 7.2474 9.71026 6.72426 9.32648 6.28463C8.9427 5.84499 8.46161 5.50099 7.92149 5.28C7.38137 5.05901 6.79712 4.96713 6.21524 5.01167C5.63336 5.05621 5.06991 5.23594 4.56972 5.53656C4.06952 5.83718 3.64639 6.25039 3.33399 6.74332C3.02159 7.23624 2.82855 7.79527 2.77022 8.37593C2.7119 8.95659 2.7899 9.54285 2.99801 10.0881C3.20613 10.6333 3.53862 11.1224 3.96903 11.5165C2.95024 11.9585 2.0647 12.6591 1.40028 13.549C1.28081 13.7081 1.22945 13.9082 1.25749 14.1052C1.28553 14.3022 1.39069 14.48 1.54982 14.5995C1.70895 14.7189 1.90902 14.7703 2.10602 14.7422C2.30302 14.7142 2.48081 14.6091 2.60028 14.4499C3.05233 13.8423 3.64073 13.3493 4.31812 13.0106C4.99551 12.6719 5.74295 12.497 6.50028 12.4999C6.6992 12.4999 6.88996 12.4209 7.03061 12.2803C7.17127 12.1396 7.25028 11.9488 7.25028 11.7499Z" fill="#8D8D8D" style="fill:#8D8D8D;fill:color(display-p3 0.5518 0.5518 0.5518);fill-opacity:1;"></path>
</svg>
